# xmcd
#
# Track frame offsets: 
#        150
#        9027
#        21329
#        32753
#        44177
#        52805
#        64902
#        76504
#        88826
#        98285
#        110616
#        125397
#        141673
#        151514
#        163476
#        172021
#        185331
#        199015
#        216387
#        228147
#        240086
#        249896
#        260678
#        273072
#
# Disc length: 3754 seconds
#
# Revision: 2
# Processed by: cddbd v1.5.2PL0 Copyright (c) Steve Scherf et al.
# Submitted via: ExactAudioCopyFreeDBPlugin 1.0
#
DISCID=370ea818
DTITLE=Various Artist - The Goldwax Story
DYEAR=2010
DGENRE=Soul
TTITLE0=Lee "Shot" Williams - You Hurt Me So Good
TTITLE1=George Jackson - Let the Best Man Win
TTITLE2=George and Greer - Do the March
TTITLE3=Wee Willie Walker - Ticket to Ride
TTITLE4=The Lyrics - I've Got a Girl (Who Looks Like a Queen) (aka "St
TTITLE4=anding on the Corner")
TTITLE5=Oboe (Osbie McClinton) - Mother-in-Law Trouble
TTITLE6=The Ovations - I'm Living Good (ft Louis Williams)
TTITLE7=(unknown male vocalist) - Recipe for Love
TTITLE8=James Carr - A Lucky Loser
TTITLE9=Unknown - I Think I'm Gonna Cry
TTITLE10=George Jackson - Don't Wake Me Up
TTITLE11=The Ovations - I Can't Be Satisfied
TTITLE12=The Merits - Arabian Jerk (instrumental)
TTITLE13=Phillip and The Faithfuls - Rhythm Marie
TTITLE14=Ivory Joe Hunter - I Can Make You Happy
TTITLE15=Unknown - It's Really Alright
TTITLE16=Unknown - What Can I Call My Own
TTITLE17=George Jackson - I Can See Sadness Ahead for Me
TTITLE18=The Ovations - Looking Back
TTITLE19=Jeb Stewart - The Greasy Frog
TTITLE20=Ben Atkins and The Nomads - Soul City USA
TTITLE21=Gene "Bowlegs" Miller - What Time Ye Got
TTITLE22=Spencer Wiggins - The Kind of Woman That's Got No Heart
TTITLE23=The Ovations - I'll Be True to You
EXTD=YEAR: 2010
EXTT0=
EXTT1=
EXTT2=
EXTT3=
EXTT4=
EXTT5=
EXTT6=
EXTT7=
EXTT8=
EXTT9=
EXTT10=
EXTT11=
EXTT12=
EXTT13=
EXTT14=
EXTT15=
EXTT16=
EXTT17=
EXTT18=
EXTT19=
EXTT20=
EXTT21=
EXTT22=
EXTT23=
PLAYORDER=
